<svg xmlns="http://www.w3.org/2000/svg" width="281" height="256" viewBox="0 0 281 256">
<g>
<path d="M 110.00 219.00 L 110.00 256.00 L 35.00 256.00 L 35.00 219.00 L 0.00 219.00 L 0.00 145.00 L 40.00 145.00 L 40.00 111.00 L 0.00 111.00 L 0.00 37.00 L 40.00 37.00 L 40.00 0.00 L 146.00 0.00 L 146.00 37.00 L 40.00 37.00 L 40.00 110.00 L 115.00 110.00 L 115.00 147.00 L 40.00 147.00 L 40.00 219.00 ZM 247.00 220.00 L 247.00 256.00 L 141.00 256.00 L 141.00 219.00 L 241.00 219.00 L 241.00 186.00 L 206.00 186.00 L 206.00 149.00 L 246.00 149.00 L 246.00 183.00 L 281.00 183.00 L 281.00 220.00 ZM 207.00 111.00 L 207.00 147.00 L 132.00 147.00 L 132.00 110.00 L 207.00 110.00 L 207.00 74.00 L 247.00 74.00 L 247.00 111.00 ZM 244.00 0.00 L 244.00 36.00 L 281.00 36.00 L 281.00 73.00 L 241.00 73.00 L 241.00 37.00 L 169.00 37.00 L 169.00 0.00 Z" fill="rgb(0,0,0)"/>
<path d="M 0.00 237.50 L 0.00 219.00 L 17.50 219.00 L 35.00 219.00 L 35.00 237.50 L 35.00 256.00 L 17.50 256.00 L 0.00 256.00 L 0.00 237.50 ZM 110.00 237.50 L 110.00 219.00 L 75.00 219.00 L 40.00 219.00 L 40.00 183.00 L 40.00 147.00 L 77.50 147.00 L 115.00 147.00 L 115.00 128.50 L 115.00 110.00 L 77.50 110.00 L 40.00 110.00 L 40.00 73.50 L 40.00 37.00 L 20.00 37.00 L 0.00 37.00 L 0.00 18.50 L 0.00 0.00 L 20.00 0.00 L 40.00 0.00 L 40.00 18.50 L 40.00 37.00 L 93.00 37.00 L 146.00 37.00 L 146.00 18.50 L 146.00 0.00 L 157.50 0.00 L 169.00 0.00 L 169.00 18.50 L 169.00 37.00 L 205.00 37.00 L 241.00 37.00 L 241.00 55.00 L 241.00 73.00 L 261.00 73.00 L 281.00 73.00 L 281.00 128.00 L 281.00 183.00 L 263.50 183.00 L 246.00 183.00 L 246.00 166.00 L 246.00 149.00 L 226.00 149.00 L 206.00 149.00 L 206.00 167.50 L 206.00 186.00 L 223.50 186.00 L 241.00 186.00 L 241.00 202.50 L 241.00 219.00 L 191.00 219.00 L 141.00 219.00 L 141.00 237.50 L 141.00 256.00 L 125.50 256.00 L 110.00 256.00 L 110.00 237.50 ZM 207.00 129.00 L 207.00 111.00 L 227.00 111.00 L 247.00 111.00 L 247.00 92.50 L 247.00 74.00 L 227.00 74.00 L 207.00 74.00 L 207.00 92.00 L 207.00 110.00 L 169.50 110.00 L 132.00 110.00 L 132.00 128.50 L 132.00 147.00 L 169.50 147.00 L 207.00 147.00 L 207.00 129.00 ZM 247.00 238.00 L 247.00 220.00 L 264.00 220.00 L 281.00 220.00 L 281.00 238.00 L 281.00 256.00 L 264.00 256.00 L 247.00 256.00 L 247.00 238.00 ZM 0.00 128.00 L 0.00 111.00 L 20.00 111.00 L 40.00 111.00 L 40.00 128.00 L 40.00 145.00 L 20.00 145.00 L 0.00 145.00 L 0.00 128.00 ZM 244.00 18.00 L 244.00 0.00 L 262.50 0.00 L 281.00 0.00 L 281.00 18.00 L 281.00 36.00 L 262.50 36.00 L 244.00 36.00 L 244.00 18.00 Z" fill="rgb(254,254,254)"/>
</g>
</svg>