<svg version="1.1" id="Layer_1" xmlns="http://www.w3.org/2000/svg" xmlns:xlink="http://www.w3.org/1999/xlink" x="0px" y="0px"
	 width="100%" viewBox="0 0 281 256" enable-background="new 0 0 281 256" xml:space="preserve">
<path fill="#FFFFFF" opacity="1.000000" stroke="none" 
	d="
M147.000000,1.000000 
	C154.354248,1.000000 161.708496,1.000000 169.531372,1.468657 
	C170.000000,13.851562 170.000000,25.765808 170.000000,38.185974 
	C194.280075,38.185974 218.097092,38.185974 242.272980,38.185974 
	C242.272980,50.417736 242.272980,62.139492 242.272980,74.000000 
	C255.760757,74.000000 268.880371,74.000000 282.000000,74.000000 
	C282.000000,110.354225 282.000000,146.708450 281.531342,183.531342 
	C269.792877,184.000000 258.523071,184.000000 246.861237,184.000000 
	C246.861237,172.396713 246.861237,161.319931 246.861237,150.272949 
	C233.387238,150.272949 220.315399,150.272949 207.276443,150.272949 
	C207.276443,162.619995 207.276443,174.691971 207.276443,187.159668 
	C218.958084,187.159668 230.368546,187.159668 241.716431,187.159668 
	C241.716431,198.301300 241.716431,209.040405 241.716431,220.172302 
	C208.362427,220.172302 175.290192,220.172302 142.000000,220.172302 
	C142.000000,232.713089 142.000000,244.856537 142.000000,257.000000 
	C131.979111,257.000000 121.958214,257.000000 111.468658,256.531342 
	C111.000000,244.134628 111.000000,232.206573 111.000000,219.909363 
	C87.437271,219.909363 64.379494,219.909363 41.212318,219.909363 
	C41.212318,195.811172 41.212318,172.089737 41.212318,147.817444 
	C66.262558,147.817444 91.105896,147.817444 115.641960,147.817444 
	C115.641960,135.198105 115.641960,123.131294 115.641960,110.702896 
	C90.561523,110.702896 65.838470,110.702896 40.924095,110.702896 
	C40.924095,86.196098 40.924095,62.063557 41.396751,37.963058 
	C76.862564,37.995106 111.855721,37.995106 147.000000,37.995106 
	C147.000000,25.241314 147.000000,13.120657 147.000000,1.000000 
M133.000000,144.348206 
	C132.339172,147.623245 133.965851,148.084991 136.859604,148.064209 
	C154.688629,147.936203 172.519043,147.999985 190.348984,148.000000 
	C196.128357,148.000015 201.907730,148.000000 208.074066,148.000000 
	C208.074066,135.795761 208.074066,124.053505 208.074066,111.922142 
	C221.541885,111.922142 234.616806,111.922142 247.759857,111.922142 
	C247.759857,99.451881 247.759857,87.381470 247.759857,75.241905 
	C234.448151,75.241905 221.377884,75.241905 207.910919,75.241905 
	C207.910919,87.219757 207.910919,98.961929 207.910919,111.090515 
	C182.777435,111.090515 158.039642,111.090515 133.000000,111.090515 
	C133.000000,122.115036 133.000000,132.746185 133.000000,144.348206 
z"/>
<path fill="#000000" opacity="1.000000" stroke="none" 
	d="
M40.924095,37.931015 
	C40.924095,62.063557 40.924095,86.196098 40.924095,110.702896 
	C65.838470,110.702896 90.561523,110.702896 115.641960,110.702896 
	C115.641960,123.131294 115.641960,135.198105 115.641960,147.817444 
	C91.105896,147.817444 66.262558,147.817444 41.212318,147.817444 
	C41.212318,172.089737 41.212318,195.811172 41.212318,219.909363 
	C64.379494,219.909363 87.437271,219.909363 111.000000,219.909363 
	C111.000000,232.206573 111.000000,244.134628 111.000000,256.531342 
	C86.312439,257.000000 61.624878,257.000000 36.468658,256.531342 
	C36.000000,244.060226 36.000000,232.057785 36.000000,220.000000 
	C23.850956,220.000000 12.425478,220.000000 1.000000,220.000000 
	C1.000000,195.645767 1.000000,171.291550 1.468657,146.468658 
	C14.835299,146.000000 27.733284,146.000000 40.658058,146.000000 
	C40.658058,134.418594 40.658058,123.260941 40.658058,112.000000 
	C27.210899,112.000000 14.105450,112.000000 1.000000,112.000000 
	C1.000000,87.645775 1.000000,63.291546 1.468657,38.468658 
	C14.981523,38.023315 28.025730,38.046627 41.033737,38.034943 
	C40.997532,37.999939 40.924095,37.931015 40.924095,37.931015 
z"/>
<path fill="#000000" opacity="1.000000" stroke="none" 
	d="
M142.468658,257.000000 
	C142.000000,244.856537 142.000000,232.713089 142.000000,220.172302 
	C175.290192,220.172302 208.362427,220.172302 241.716431,220.172302 
	C241.716431,209.040405 241.716431,198.301300 241.716431,187.159668 
	C230.368546,187.159668 218.958084,187.159668 207.276443,187.159668 
	C207.276443,174.691971 207.276443,162.619995 207.276443,150.272949 
	C220.315399,150.272949 233.387238,150.272949 246.861237,150.272949 
	C246.861237,161.319931 246.861237,172.396713 246.861237,184.000000 
	C258.523071,184.000000 269.792877,184.000000 281.531342,184.000000 
	C282.000000,196.020889 282.000000,208.041794 281.624268,220.533051 
	C279.085938,222.947311 277.027832,221.433548 274.737518,221.267868 
	C265.899933,220.628525 256.988647,221.008331 248.000000,221.008331 
	C248.000000,233.447754 248.000000,245.223877 248.000000,257.000000 
	C212.979111,257.000000 177.958206,257.000000 142.468658,257.000000 
z"/>
<path fill="#000000" opacity="1.000000" stroke="none" 
	d="
M282.000000,73.531342 
	C268.880371,74.000000 255.760757,74.000000 242.272980,74.000000 
	C242.272980,62.139492 242.272980,50.417736 242.272980,38.185974 
	C218.097092,38.185974 194.280075,38.185974 170.000000,38.185974 
	C170.000000,25.765808 170.000000,13.851562 170.000000,1.468657 
	C194.687561,1.000000 219.375122,1.000000 244.531342,1.468657 
	C245.000000,13.608891 245.000000,25.280466 245.000000,37.000000 
	C257.820190,37.000000 269.910095,37.000000 282.000000,37.000000 
	C282.000000,49.020893 282.000000,61.041790 282.000000,73.531342 
z"/>
<path fill="#000000" opacity="1.000000" stroke="none" 
	d="
M146.531342,1.000000 
	C147.000000,13.120657 147.000000,25.241314 147.000000,37.995106 
	C111.855721,37.995106 76.862564,37.995106 41.396751,37.963058 
	C40.924095,37.931015 40.997532,37.999939 41.001244,37.562820 
	C41.003300,25.083799 41.001652,13.041900 41.000000,1.000000 
	C76.020897,1.000000 111.041786,1.000000 146.531342,1.000000 
z"/>
<path fill="#FFFFFF" opacity="1.000000" stroke="none" 
	d="
M40.531342,1.000000 
	C41.001652,13.041900 41.003300,25.083799 41.037445,37.597820 
	C28.025730,38.046627 14.981523,38.023315 1.468657,38.000000 
	C1.000000,25.737171 1.000000,13.474342 1.000000,1.000000 
	C14.020131,1.000000 27.041407,1.000000 40.531342,1.000000 
z"/>
<path fill="#FFFFFF" opacity="1.000000" stroke="none" 
	d="
M1.000000,112.468658 
	C14.105450,112.000000 27.210899,112.000000 40.658058,112.000000 
	C40.658058,123.260941 40.658058,134.418594 40.658058,146.000000 
	C27.733284,146.000000 14.835299,146.000000 1.468657,146.000000 
	C1.000000,134.979111 1.000000,123.958214 1.000000,112.468658 
z"/>
<path fill="#FFFFFF" opacity="1.000000" stroke="none" 
	d="
M282.000000,36.531342 
	C269.910095,37.000000 257.820190,37.000000 245.000000,37.000000 
	C245.000000,25.280466 245.000000,13.608891 245.000000,1.468657 
	C257.258942,1.000000 269.517883,1.000000 282.000000,1.000000 
	C282.000000,12.686615 282.000000,24.374649 282.000000,36.531342 
z"/>
<path fill="#FFFFFF" opacity="1.000000" stroke="none" 
	d="
M1.000000,220.468658 
	C12.425478,220.000000 23.850956,220.000000 36.000000,220.000000 
	C36.000000,232.057785 36.000000,244.060226 36.000000,256.531342 
	C24.404690,257.000000 12.809381,257.000000 1.000000,257.000000 
	C1.000000,244.979950 1.000000,232.958633 1.000000,220.468658 
z"/>
<path fill="#FFFFFF" opacity="1.000000" stroke="none" 
	d="
M248.468658,257.000000 
	C248.000000,245.223877 248.000000,233.447754 248.000000,221.008331 
	C256.988647,221.008331 265.899933,220.628525 274.737518,221.267868 
	C277.027832,221.433548 279.085938,222.947311 281.624268,221.001709 
	C282.000000,232.924484 282.000000,244.848984 282.000000,257.000000 
	C270.980133,257.000000 259.958740,257.000000 248.468658,257.000000 
z"/>
<path fill="#000000" opacity="1.000000" stroke="none" 
	d="
M133.000000,143.862762 
	C133.000000,132.746185 133.000000,122.115036 133.000000,111.090515 
	C158.039642,111.090515 182.777435,111.090515 207.910919,111.090515 
	C207.910919,98.961929 207.910919,87.219757 207.910919,75.241905 
	C221.377884,75.241905 234.448151,75.241905 247.759857,75.241905 
	C247.759857,87.381470 247.759857,99.451881 247.759857,111.922142 
	C234.616806,111.922142 221.541885,111.922142 208.074066,111.922142 
	C208.074066,124.053505 208.074066,135.795761 208.074066,148.000000 
	C201.907730,148.000000 196.128357,148.000015 190.348984,148.000000 
	C172.519043,147.999985 154.688629,147.936203 136.859604,148.064209 
	C133.965851,148.084991 132.339172,147.623245 133.000000,143.862762 
z"/>
</svg>